<?xml version="1.0" encoding="utf-8"?>
<svg viewBox="0 0 24 24" xmlns="http://www.w3.org/2000/svg">
  <path d="M 6.281000000000001 1 C 3.0980000000000008 1 8.881784197001252e-16 3.187 8.881784197001252e-16 7.192 C 8.881784197001252e-16 11.853 5.570000000000001 16.619 12 23 C 18.43 16.619 24 11.853 24 7.192 C 24 3.181 20.903 1.0099999999999998 17.726 1.0099999999999998 C 15.521999999999998 1.0099999999999998 13.28 2.0519999999999996 12 4.247999999999999 C 10.715 2.0419999999999994 8.478 0.9999999999999991 6.281 0.9999999999999991 L 6.281000000000001 1" style=""/>
  <path d="M 6.28 3 C 9.516 3.001 11.253 6.491 12 8.030999999999999 C 12.75 6.483999999999998 14.469 3.009999999999999 17.726 3.009999999999999 C 19.784 3.009999999999999 22 4.318999999999999 22 7.191999999999999 C 22 10.634 17.256 15.043 12 20.192 C 6.742 15.041 2 10.633000000000001 2 7.192 C 2 4.516 3.965 2.9990000000000006 6.28 3" style="fill: rgba(255, 0, 60, 0.56); paint-order: fill;"/>
</svg>