<?xml version="1.0" encoding="utf-8"?>
<svg viewBox="0 0 500 500" xmlns="http://www.w3.org/2000/svg">
  <defs>
    <linearGradient gradientUnits="userSpaceOnUse" x1="287.671" y1="55.953" x2="287.671" y2="425.953" id="gradient-0" gradientTransform="matrix(0.710176, 0.704026, -1.273433, 1.284556, 287.630114, -223.399277)" spreadMethod="pad">
      <stop offset="0" style="stop-color: rgb(238, 0, 0);"/>
      <stop offset="1" style="stop-color: rgb(80, 0, 0);"/>
    </linearGradient>
  </defs>
  <g id="SVGRepo_iconCarrier" transform="matrix(1, 0, 0, 1, 8.264539718627816, 7.895768165588265)">
    <path id="XMLID_25_" d="M 443.758 285.869 C 442.252 287.405 294.919 437.573 294.919 437.573 C 280.73 452.035 261.842 460 241.736 460 C 221.63 460 202.742 452.035 188.553 437.573 L 39.714 285.869 C -17.59 227.463 -17.59 132.428 39.714 74.022 C 67.566 45.634 104.618 30 144.046 30 C 180.415 30 214.766 43.304 241.736 67.648 C 268.707 43.304 303.056 30 339.425 30 C 378.853 30 415.906 45.634 443.757 74.021 C 501.062 132.428 501.062 227.463 443.758 285.869" style="paint-order: fill; fill-rule: nonzero;"/>
    <path id="XMLID_25_" d="M 422.332 95.028 C 400.17 72.44 370.727 60 339.426 60 C 308.125 60 278.681 72.439 256.52 95.027 C 255.398 96.171 254.391 97.56 252.982 98.804 C 245.446 105.458 236.61 105.124 230.491 98.804 C 229.183 97.452 228.075 96.171 226.953 95.027 C 204.791 72.44 175.348 60 144.046 60 C 112.745 60 83.302 72.439 61.14 95.027 C 15.2 141.851 15.2 218.039 61.14 264.863 C 62.507 266.256 209.979 416.567 209.979 416.567 C 218.478 425.229 229.756 430 241.736 430 C 253.716 430 264.994 425.229 273.493 416.567 L 422.332 264.864 C 468.271 218.04 468.271 141.852 422.332 95.028" style="fill-rule: nonzero; fill: url('#gradient-0'); paint-order: fill; stroke-linecap: square;"/>
  </g>
</svg>